<svg xmlns="http://www.w3.org/2000/svg" viewBox="0 0 127 18" style="enable-background:new 0 0 127 18" xml:space="preserve"><path d="M22.5 1.5C21.4.6 20 .2 18.4.2c-1.1 0-2.3.1-3.4.2h-1v17.3h3v-6.4h.1c1.9 0 3.5-.5 4.9-1.6 1.4-1.1 2.2-2.5 2.2-4.3 0-1.6-.6-3-1.7-3.9zM20 7.7c-.8.6-1.8.9-3 .9V3.1h1.2c1 0 1.8.2 2.2.6.4.3.7.8.7 1.8 0 .9-.4 1.6-1.1 2.2zM75.9.2l-7.1 17.6H72l2.1-5.4h5.3l2.1 5.4h3.3L77.8.2h-1.9zm-.6 9.3 1.5-3.8 1.5 3.8h-3zm-71-6.2c.3-.2.8-.3 1.7-.3.8 0 1.7.2 2.6.6l.9.4 1.1-2.7-.8-.4C8.6.3 7.3 0 5.9 0S3.2.3 2.3 1.1C1.3 1.9.8 3 .8 4.3c0 1 .3 1.9.9 2.7.5.8 1.2 1.4 1.9 2 .7.5 1.3 1 2 1.5.6.4 1.1.9 1.5 1.4.3.4.5.8.5 1.2 0 .7-.2 1.1-.6 1.4-.5.3-1.1.5-2.2.5-1 0-1.9-.3-2.7-.8l-.9-.6L-.4 16l.7.6c1.3.9 2.8 1.4 4.5 1.4 1.6 0 3.1-.4 4.1-1.2 1.1-.9 1.6-2.2 1.6-3.8 0-1-.3-1.9-.9-2.7-.5-.8-1.2-1.4-1.9-2-.7-.5-1.3-.9-2-1.4-.4-.4-.9-.8-1.3-1.3-.3-.5-.5-.9-.5-1.3 0-.6.2-.8.4-1zM119.6.2h-1.9l-7.1 17.6h3.2l2.1-5.4h5.3l2.1 5.4h3.3l-7-17.6zm-2.5 9.3 1.5-3.8 1.5 3.8h-3zM57.3 14c-.2-.2-.7-.8-1.4-1.8-.5-.7-1-1.3-1.4-1.9.5-.4.9-1 1.3-1.6.6-1 1-2 1-3.2 0-1.6-.6-3-1.7-4C54 .6 52.6.1 51 .1c-.9 0-2.1.1-3.4.2l-.9.1v17.3h3v-6.3c.7 0 1.4.1 2.2.1 1.7 2.4 2.8 4 3.3 4.5.6.6 1.2 1.1 1.8 1.4.7.3 1.5.5 2.5.5h1l.1-2.6-.9-.1c-1-.1-1.7-.5-2.4-1.2zm-5.7-5.4c-.7 0-1.4 0-2.1-.1V3.1h1.2c1 0 1.7.2 2.2.6.4.3.7.8.7 1.7s-.3 1.6-.8 2.3c-.6.8-1 .9-1.2.9zm-2-6.5c.1 0 0 0 0 0zm3.5 8zm.9 1.2zM97.3 14c-.2-.2-.7-.8-1.4-1.8-.5-.7-1-1.3-1.4-1.9.5-.4.9-1 1.3-1.6.6-1 1-2 1-3.2 0-1.6-.5-3-1.7-4C94 .6 92.6.1 91 .1c-.9 0-2.1.1-3.4.2l-.9.1v17.3h3v-6.3c.7 0 1.4.1 2.2.1 1.7 2.4 2.8 4 3.3 4.5.6.6 1.2 1.1 1.8 1.4.7.3 1.5.5 2.5.5h1l.1-2.6-.9-.1c-1-.1-1.7-.5-2.4-1.2zm-5.6-5.4c-.7 0-1.4 0-2.1-.1V3.1h1.2c1 0 1.7.2 2.2.6.4.3.7.8.7 1.7s-.3 1.6-.8 2.3c-.7.8-1.1.9-1.2.9zm.9.7zm.6.8zm11.1-.3h5.3V6.9h-5.3V3.2h5.9V.3h-8.9v17.4h9.1v-2.9h-6.1zM34.5 0c-2.4 0-4.4.9-6 2.6C27 4.4 26.2 6.5 26.2 9s.8 4.6 2.3 6.4c1.6 1.8 3.6 2.6 6 2.6s4.4-.9 6-2.6 2.3-3.9 2.3-6.4-.8-4.6-2.3-6.3C38.9.9 36.9 0 34.5 0zm5.3 9c0 1.8-.5 3.2-1.5 4.4-1 1.1-2.2 1.7-3.7 1.7s-2.8-.6-3.7-1.7c-1-1.2-1.5-2.6-1.5-4.4s.5-3.2 1.5-4.4C31.8 3.5 33 3 34.5 3s2.8.6 3.7 1.7c1.1 1.1 1.6 2.5 1.6 4.3zM71.1.3H58v2.9h5v14.5h3V3.2h5.1z" style="fill:#333"/></svg>